# xmcd
#
# Track frame offsets:
#	182
#	12100
#	23420
#	38040
#	52395
#	68142
#	83757
#	99090
#	111072
#	123622
#	141417
#	155992
#	172667
#	185600
#	198202
#	212677
#	224030
#	236402
#	253885
#	269897
#
# Disc length: 3760
#
# Revision: 4
# Processed by: cddbd v1.5.1PL0 Copyright (c) Steve Scherf et al.
# Submitted via: CDex 1.51
# Normalized: r3:TDELIM( - )
#
DISCID=260eae14
DTITLE=Various Artist - Heart Of The Land
DYEAR=1997
DGENRE=Country
TTITLE0=Alan Jackson - Little Bitty
TTITLE1=BR5-49 - Cherokee Boogie
TTITLE2=Johnny Cash - I've Been Everywhere
TTITLE3=Mindy McCready - Guys Do It All The Time
TTITLE4=Carol Young - Only You
TTITLE5=Brooks and Dunn - My Maria
TTITLE6=The Wheel - Saw You Runnin'
TTITLE7=Shanley Del - Funnel Of Love
TTITLE8=Alan Jackson - Who I Am
TTITLE9=Michelle Wright - Love Has No Pride
TTITLE10=Martina McBride - Safe In The Arms Of Love
TTITLE11=The Wheel - Man With A Hammer
TTITLE12=Carol Young - Rocks Or Roses
TTITLE13=Clint Black - Summer's Comin'
TTITLE14=BR5-4+ - Even If Its Wrong
TTITLE15=Johnny Cash - Country Boy
TTITLE16=Lorrie Morgan - What Part Of No Don't You Understand
TTITLE17=Michelle Wright - We've Tried Everything Else
TTITLE18=Brooks and Dunn - A Man This Lonely
TTITLE19=Shanley Del - Never A Good Goodbye
EXTD=YEAR: 1997
EXTT0=
EXTT1=
EXTT2=
EXTT3=
EXTT4=
EXTT5=
EXTT6=
EXTT7=
EXTT8=
EXTT9=
EXTT10=
EXTT11=
EXTT12=
EXTT13=
EXTT14=
EXTT15=
EXTT16=
EXTT17=
EXTT18=
EXTT19=
PLAYORDER=
